<svg width="26" height="26" viewBox="0 0 26 26" fill="none" xmlns="http://www.w3.org/2000/svg">
<path d="M25.6023 13.2902C25.6023 12.4337 25.5315 11.5726 25.3803 10.7299H13.255V15.582H20.1986C19.9105 17.1468 18.9847 18.5312 17.629 19.4108V22.5591H21.7715C24.2042 20.3646 25.6023 17.1237 25.6023 13.2902Z" fill="#4285F4"/>
<path d="M13.255 25.6008C16.7221 25.6008 19.6459 24.485 21.7762 22.559L17.6337 19.4108C16.4812 20.1793 14.9933 20.6145 13.2597 20.6145C9.90604 20.6145 7.06248 18.3968 6.0422 15.4152H1.76741V18.6607C3.94968 22.9155 8.39451 25.6008 13.255 25.6008Z" fill="#34A853"/>
<path d="M6.03753 15.4153C5.49905 13.8504 5.49905 12.1559 6.03753 10.5911V7.34557H1.76746C-0.0558186 10.9059 -0.0558186 15.1005 1.76746 18.6608L6.03753 15.4153Z" fill="#FBBC04"/>
<path d="M13.255 5.38714C15.0877 5.35936 16.8591 6.03531 18.1864 7.2761L21.8565 3.67874C19.5326 1.53977 16.4481 0.363805 13.255 0.400843C8.39451 0.400843 3.94968 3.08613 1.76741 7.34554L6.03747 10.591C7.05303 7.60481 9.90131 5.38714 13.255 5.38714Z" fill="#EA4335"/>
</svg>
